<?xml version="1.0" encoding="utf-8"?>
<!-- Generator: Adobe Illustrator 25.4.1, SVG Export Plug-In . SVG Version: 6.00 Build 0)  -->
<svg version="1.1" id="Capa_1" xmlns="http://www.w3.org/2000/svg" xmlns:xlink="http://www.w3.org/1999/xlink" x="0px" y="0px"
	 viewBox="0 0 837.77 768" style="enable-background:new 0 0 837.77 768;" xml:space="preserve">
<style type="text/css">
	.st0{opacity:0.17;}
	.st1{fill:#7B2CBF;}
	.st2{clip-path:url(#SVGID_00000049935876757344050770000003494046758649056953_);fill:#460E8E;}
	.st3{fill:#460E8E;}
</style>
<g>
	<g class="st0">
		<g>
			<path class="st1" d="M419.07,749.1c-192.82,0-349.69-156.87-349.69-349.69c0-192.82,156.87-349.69,349.69-349.69
				s349.69,156.87,349.69,349.69C768.76,592.23,611.89,749.1,419.07,749.1z M419.07,80.91c-175.62,0-318.5,142.88-318.5,318.5
				c0,175.62,142.88,318.5,318.5,318.5s318.5-142.88,318.5-318.5C737.57,223.79,594.69,80.91,419.07,80.91z"/>
		</g>
	</g>
	<g>
		<g>
			<g>
				<defs>
					<path id="SVGID_1_" d="M724.3,228.96l-27.23,15.19C642.51,146.8,538.37,80.9,419.06,80.9V49.71
						C550.03,49.71,664.41,122.1,724.3,228.96z"/>
				</defs>
				<clipPath id="SVGID_00000139261663387502165980000011679518462244720264_">
					<use xlink:href="#SVGID_1_"  style="overflow:visible;"/>
				</clipPath>
			</g>
		</g>
		<g>
			<g>
				<defs>
					<path id="SVGID_00000010988918101308823020000016080268577626756486_" d="M724.3,228.96l-27.23,15.19
						C642.51,146.8,538.37,80.9,419.06,80.9V49.71C550.03,49.71,664.41,122.1,724.3,228.96z"/>
				</defs>
				<use xlink:href="#SVGID_00000010988918101308823020000016080268577626756486_"  style="overflow:visible;fill:#460E8E;"/>
				<clipPath id="SVGID_00000166661414714116219440000008376952907482872976_">
					<use xlink:href="#SVGID_00000010988918101308823020000016080268577626756486_"  style="overflow:visible;"/>
				</clipPath>
				<path style="clip-path:url(#SVGID_00000166661414714116219440000008376952907482872976_);fill:#460E8E;" d="M724.3,244.15V49.71
					V244.15z"/>
				
					<rect x="720.79" y="49.71" style="clip-path:url(#SVGID_00000166661414714116219440000008376952907482872976_);fill:#460E8E;" width="3.51" height="194.45"/>
				
					<rect x="717.28" y="49.71" style="clip-path:url(#SVGID_00000166661414714116219440000008376952907482872976_);fill:#460E8E;" width="3.51" height="194.45"/>
				
					<rect x="713.77" y="49.71" style="clip-path:url(#SVGID_00000166661414714116219440000008376952907482872976_);fill:#460E8E;" width="3.51" height="194.45"/>
				
					<rect x="710.26" y="49.71" style="clip-path:url(#SVGID_00000166661414714116219440000008376952907482872976_);fill:#460E8E;" width="3.51" height="194.45"/>
				
					<rect x="706.75" y="49.71" style="clip-path:url(#SVGID_00000166661414714116219440000008376952907482872976_);fill:#460E8E;" width="3.51" height="194.45"/>
				
					<rect x="703.25" y="49.71" style="clip-path:url(#SVGID_00000166661414714116219440000008376952907482872976_);fill:#460E8E;" width="3.51" height="194.45"/>
				
					<rect x="699.74" y="49.71" style="clip-path:url(#SVGID_00000166661414714116219440000008376952907482872976_);fill:#460E8E;" width="3.51" height="194.45"/>
				
					<rect x="696.23" y="49.71" style="clip-path:url(#SVGID_00000166661414714116219440000008376952907482872976_);fill:#460E8E;" width="3.51" height="194.45"/>
				
					<rect x="692.72" y="49.71" style="clip-path:url(#SVGID_00000166661414714116219440000008376952907482872976_);fill:#460E8E;" width="3.51" height="194.45"/>
				
					<rect x="689.21" y="49.71" style="clip-path:url(#SVGID_00000166661414714116219440000008376952907482872976_);fill:#460E8E;" width="3.51" height="194.45"/>
				
					<rect x="685.7" y="49.71" style="clip-path:url(#SVGID_00000166661414714116219440000008376952907482872976_);fill:#460E8E;" width="3.51" height="194.45"/>
				
					<rect x="682.2" y="49.71" style="clip-path:url(#SVGID_00000166661414714116219440000008376952907482872976_);fill:#460E8E;" width="3.51" height="194.45"/>
				
					<rect x="678.69" y="49.71" style="clip-path:url(#SVGID_00000166661414714116219440000008376952907482872976_);fill:#460E8E;" width="3.51" height="194.45"/>
				
					<rect x="675.18" y="49.71" style="clip-path:url(#SVGID_00000166661414714116219440000008376952907482872976_);fill:#460E8E;" width="3.51" height="194.45"/>
				
					<rect x="671.67" y="49.71" style="clip-path:url(#SVGID_00000166661414714116219440000008376952907482872976_);fill:#460E8E;" width="3.51" height="194.45"/>
				
					<rect x="668.16" y="49.71" style="clip-path:url(#SVGID_00000166661414714116219440000008376952907482872976_);fill:#460E8E;" width="3.51" height="194.45"/>
				
					<rect x="664.65" y="49.71" style="clip-path:url(#SVGID_00000166661414714116219440000008376952907482872976_);fill:#460E8E;" width="3.51" height="194.45"/>
				
					<rect x="661.14" y="49.71" style="clip-path:url(#SVGID_00000166661414714116219440000008376952907482872976_);fill:#460E8E;" width="3.51" height="194.45"/>
				
					<rect x="657.64" y="49.71" style="clip-path:url(#SVGID_00000166661414714116219440000008376952907482872976_);fill:#460E8E;" width="3.51" height="194.45"/>
				
					<rect x="654.13" y="49.71" style="clip-path:url(#SVGID_00000166661414714116219440000008376952907482872976_);fill:#460E8E;" width="3.51" height="194.45"/>
				
					<rect x="650.62" y="49.71" style="clip-path:url(#SVGID_00000166661414714116219440000008376952907482872976_);fill:#460E8E;" width="3.51" height="194.45"/>
				
					<rect x="647.11" y="49.71" style="clip-path:url(#SVGID_00000166661414714116219440000008376952907482872976_);fill:#460E8E;" width="3.51" height="194.45"/>
				
					<rect x="643.6" y="49.71" style="clip-path:url(#SVGID_00000166661414714116219440000008376952907482872976_);fill:#460E8E;" width="3.51" height="194.45"/>
				
					<rect x="640.09" y="49.71" style="clip-path:url(#SVGID_00000166661414714116219440000008376952907482872976_);fill:#460E8E;" width="3.51" height="194.45"/>
				
					<rect x="636.58" y="49.71" style="clip-path:url(#SVGID_00000166661414714116219440000008376952907482872976_);fill:#460E8E;" width="3.51" height="194.45"/>
				
					<rect x="633.08" y="49.71" style="clip-path:url(#SVGID_00000166661414714116219440000008376952907482872976_);fill:#460E8E;" width="3.51" height="194.45"/>
				
					<rect x="629.57" y="49.71" style="clip-path:url(#SVGID_00000166661414714116219440000008376952907482872976_);fill:#460E8E;" width="3.51" height="194.45"/>
				
					<rect x="626.06" y="49.71" style="clip-path:url(#SVGID_00000166661414714116219440000008376952907482872976_);fill:#460E8E;" width="3.51" height="194.45"/>
				
					<rect x="622.55" y="49.71" style="clip-path:url(#SVGID_00000166661414714116219440000008376952907482872976_);fill:#460E8E;" width="3.51" height="194.45"/>
				
					<rect x="619.04" y="49.71" style="clip-path:url(#SVGID_00000166661414714116219440000008376952907482872976_);fill:#460E8E;" width="3.51" height="194.45"/>
				
					<rect x="615.53" y="49.71" style="clip-path:url(#SVGID_00000166661414714116219440000008376952907482872976_);fill:#460E8E;" width="3.51" height="194.45"/>
				
					<rect x="612.03" y="49.71" style="clip-path:url(#SVGID_00000166661414714116219440000008376952907482872976_);fill:#460E8E;" width="3.51" height="194.45"/>
				
					<rect x="608.52" y="49.71" style="clip-path:url(#SVGID_00000166661414714116219440000008376952907482872976_);fill:#460E8E;" width="3.51" height="194.45"/>
				
					<rect x="605.01" y="49.71" style="clip-path:url(#SVGID_00000166661414714116219440000008376952907482872976_);fill:#460E8E;" width="3.51" height="194.45"/>
				
					<rect x="601.5" y="49.71" style="clip-path:url(#SVGID_00000166661414714116219440000008376952907482872976_);fill:#460E8E;" width="3.51" height="194.45"/>
				
					<rect x="597.99" y="49.71" style="clip-path:url(#SVGID_00000166661414714116219440000008376952907482872976_);fill:#460E8E;" width="3.51" height="194.45"/>
				
					<rect x="594.48" y="49.71" style="clip-path:url(#SVGID_00000166661414714116219440000008376952907482872976_);fill:#460E8E;" width="3.51" height="194.45"/>
				
					<rect x="590.97" y="49.71" style="clip-path:url(#SVGID_00000166661414714116219440000008376952907482872976_);fill:#460E8E;" width="3.51" height="194.45"/>
				
					<rect x="587.47" y="49.71" style="clip-path:url(#SVGID_00000166661414714116219440000008376952907482872976_);fill:#460E8E;" width="3.51" height="194.45"/>
				
					<rect x="583.96" y="49.71" style="clip-path:url(#SVGID_00000166661414714116219440000008376952907482872976_);fill:#460E8E;" width="3.51" height="194.45"/>
				
					<rect x="580.45" y="49.71" style="clip-path:url(#SVGID_00000166661414714116219440000008376952907482872976_);fill:#460E8E;" width="3.51" height="194.45"/>
				
					<rect x="576.94" y="49.71" style="clip-path:url(#SVGID_00000166661414714116219440000008376952907482872976_);fill:#460E8E;" width="3.51" height="194.45"/>
				
					<rect x="573.43" y="49.71" style="clip-path:url(#SVGID_00000166661414714116219440000008376952907482872976_);fill:#460E8E;" width="3.51" height="194.45"/>
				
					<rect x="569.92" y="49.71" style="clip-path:url(#SVGID_00000166661414714116219440000008376952907482872976_);fill:#460E8E;" width="3.51" height="194.45"/>
				
					<rect x="566.41" y="49.71" style="clip-path:url(#SVGID_00000166661414714116219440000008376952907482872976_);fill:#460E8E;" width="3.51" height="194.45"/>
				
					<rect x="562.91" y="49.71" style="clip-path:url(#SVGID_00000166661414714116219440000008376952907482872976_);fill:#460E8E;" width="3.51" height="194.45"/>
				
					<rect x="559.4" y="49.71" style="clip-path:url(#SVGID_00000166661414714116219440000008376952907482872976_);fill:#460E8E;" width="3.51" height="194.45"/>
				
					<rect x="555.89" y="49.71" style="clip-path:url(#SVGID_00000166661414714116219440000008376952907482872976_);fill:#460E8E;" width="3.51" height="194.45"/>
				
					<rect x="552.38" y="49.71" style="clip-path:url(#SVGID_00000166661414714116219440000008376952907482872976_);fill:#460E8E;" width="3.51" height="194.45"/>
				
					<rect x="548.87" y="49.71" style="clip-path:url(#SVGID_00000166661414714116219440000008376952907482872976_);fill:#460E8E;" width="3.51" height="194.45"/>
				
					<rect x="545.36" y="49.71" style="clip-path:url(#SVGID_00000166661414714116219440000008376952907482872976_);fill:#460E8E;" width="3.51" height="194.45"/>
				
					<rect x="541.86" y="49.71" style="clip-path:url(#SVGID_00000166661414714116219440000008376952907482872976_);fill:#460E8E;" width="3.51" height="194.45"/>
				
					<rect x="538.35" y="49.71" style="clip-path:url(#SVGID_00000166661414714116219440000008376952907482872976_);fill:#460E8E;" width="3.51" height="194.45"/>
				
					<rect x="534.84" y="49.71" style="clip-path:url(#SVGID_00000166661414714116219440000008376952907482872976_);fill:#460E8E;" width="3.51" height="194.45"/>
				
					<rect x="531.33" y="49.71" style="clip-path:url(#SVGID_00000166661414714116219440000008376952907482872976_);fill:#460E8E;" width="3.51" height="194.45"/>
				
					<rect x="527.82" y="49.71" style="clip-path:url(#SVGID_00000166661414714116219440000008376952907482872976_);fill:#460E8E;" width="3.51" height="194.45"/>
				
					<rect x="524.31" y="49.71" style="clip-path:url(#SVGID_00000166661414714116219440000008376952907482872976_);fill:#460E8E;" width="3.51" height="194.45"/>
				
					<rect x="520.8" y="49.71" style="clip-path:url(#SVGID_00000166661414714116219440000008376952907482872976_);fill:#460E8E;" width="3.51" height="194.45"/>
				
					<rect x="517.3" y="49.71" style="clip-path:url(#SVGID_00000166661414714116219440000008376952907482872976_);fill:#460E8E;" width="3.51" height="194.45"/>
				
					<rect x="513.79" y="49.71" style="clip-path:url(#SVGID_00000166661414714116219440000008376952907482872976_);fill:#460E8E;" width="3.51" height="194.45"/>
				
					<rect x="510.28" y="49.71" style="clip-path:url(#SVGID_00000166661414714116219440000008376952907482872976_);fill:#460E8E;" width="3.51" height="194.45"/>
				
					<rect x="506.77" y="49.71" style="clip-path:url(#SVGID_00000166661414714116219440000008376952907482872976_);fill:#460E8E;" width="3.51" height="194.45"/>
				
					<rect x="503.26" y="49.71" style="clip-path:url(#SVGID_00000166661414714116219440000008376952907482872976_);fill:#460E8E;" width="3.51" height="194.45"/>
				
					<rect x="499.75" y="49.71" style="clip-path:url(#SVGID_00000166661414714116219440000008376952907482872976_);fill:#460E8E;" width="3.51" height="194.45"/>
				
					<rect x="496.24" y="49.71" style="clip-path:url(#SVGID_00000166661414714116219440000008376952907482872976_);fill:#460E8E;" width="3.51" height="194.45"/>
				
					<rect x="492.74" y="49.71" style="clip-path:url(#SVGID_00000166661414714116219440000008376952907482872976_);fill:#460E8E;" width="3.51" height="194.45"/>
				
					<rect x="489.23" y="49.71" style="clip-path:url(#SVGID_00000166661414714116219440000008376952907482872976_);fill:#460E8E;" width="3.51" height="194.45"/>
				
					<rect x="485.72" y="49.71" style="clip-path:url(#SVGID_00000166661414714116219440000008376952907482872976_);fill:#460E8E;" width="3.51" height="194.45"/>
				
					<rect x="482.21" y="49.71" style="clip-path:url(#SVGID_00000166661414714116219440000008376952907482872976_);fill:#460E8E;" width="3.51" height="194.45"/>
				
					<rect x="478.7" y="49.71" style="clip-path:url(#SVGID_00000166661414714116219440000008376952907482872976_);fill:#460E8E;" width="3.51" height="194.45"/>
				
					<rect x="475.19" y="49.71" style="clip-path:url(#SVGID_00000166661414714116219440000008376952907482872976_);fill:#460E8E;" width="3.51" height="194.45"/>
				
					<rect x="471.69" y="49.71" style="clip-path:url(#SVGID_00000166661414714116219440000008376952907482872976_);fill:#460E8E;" width="3.51" height="194.45"/>
				
					<rect x="468.18" y="49.71" style="clip-path:url(#SVGID_00000166661414714116219440000008376952907482872976_);fill:#460E8E;" width="3.51" height="194.45"/>
				
					<rect x="464.67" y="49.71" style="clip-path:url(#SVGID_00000166661414714116219440000008376952907482872976_);fill:#460E8E;" width="3.51" height="194.45"/>
				
					<rect x="461.16" y="49.71" style="clip-path:url(#SVGID_00000166661414714116219440000008376952907482872976_);fill:#460E8E;" width="3.51" height="194.45"/>
				
					<rect x="457.65" y="49.71" style="clip-path:url(#SVGID_00000166661414714116219440000008376952907482872976_);fill:#460E8E;" width="3.51" height="194.45"/>
				
					<rect x="454.14" y="49.71" style="clip-path:url(#SVGID_00000166661414714116219440000008376952907482872976_);fill:#460E8E;" width="3.51" height="194.45"/>
				
					<rect x="450.63" y="49.71" style="clip-path:url(#SVGID_00000166661414714116219440000008376952907482872976_);fill:#460E8E;" width="3.51" height="194.45"/>
				
					<rect x="447.13" y="49.71" style="clip-path:url(#SVGID_00000166661414714116219440000008376952907482872976_);fill:#460E8E;" width="3.51" height="194.45"/>
				
					<rect x="443.62" y="49.71" style="clip-path:url(#SVGID_00000166661414714116219440000008376952907482872976_);fill:#460E8E;" width="3.51" height="194.45"/>
				
					<rect x="440.11" y="49.71" style="clip-path:url(#SVGID_00000166661414714116219440000008376952907482872976_);fill:#460E8E;" width="3.51" height="194.45"/>
				
					<rect x="436.6" y="49.71" style="clip-path:url(#SVGID_00000166661414714116219440000008376952907482872976_);fill:#460E8E;" width="3.51" height="194.45"/>
				
					<rect x="433.09" y="49.71" style="clip-path:url(#SVGID_00000166661414714116219440000008376952907482872976_);fill:#460E8E;" width="3.51" height="194.45"/>
				
					<rect x="429.58" y="49.71" style="clip-path:url(#SVGID_00000166661414714116219440000008376952907482872976_);fill:#460E8E;" width="3.51" height="194.45"/>
				
					<rect x="426.08" y="49.71" style="clip-path:url(#SVGID_00000166661414714116219440000008376952907482872976_);fill:#460E8E;" width="3.51" height="194.45"/>
				
					<rect x="422.57" y="49.71" style="clip-path:url(#SVGID_00000166661414714116219440000008376952907482872976_);fill:#460E8E;" width="3.51" height="194.45"/>
				
					<rect x="419.06" y="49.71" style="clip-path:url(#SVGID_00000166661414714116219440000008376952907482872976_);fill:#460E8E;" width="3.51" height="194.45"/>
				<path style="clip-path:url(#SVGID_00000166661414714116219440000008376952907482872976_);fill:#460E8E;" d="M419.06,49.71
					v194.45V49.71z"/>
			</g>
			<path class="st3" d="M696.47,246.27l-0.76-1.36C639.55,144.71,533.54,82.46,419.06,82.46h-1.56V48.15h1.56
				c126.87,0,244.36,68.99,306.6,180.05l0.76,1.36L696.47,246.27z M420.62,79.34c114.5,0.56,220.4,62.75,277.05,162.69l24.51-13.67
				C660.54,119.54,545.24,51.83,420.62,51.27V79.34z"/>
		</g>
		<g>
			<g>
				<defs>
					<path id="SVGID_00000180333891060166105350000000305411747318017933_" d="M724.3,228.96l-27.23,15.19
						C642.51,146.8,538.37,80.9,419.06,80.9V49.71C550.03,49.71,664.41,122.1,724.3,228.96z"/>
				</defs>
				<clipPath id="SVGID_00000058578394800057908740000005734874161797623174_">
					<use xlink:href="#SVGID_00000180333891060166105350000000305411747318017933_"  style="overflow:visible;"/>
				</clipPath>
			</g>
		</g>
	</g>
	<circle class="st3" cx="707.95" cy="238.51" r="44.22"/>
</g>
</svg>
