<?xml version="1.0" encoding="utf-8"?>
<!-- Generator: Adobe Illustrator 25.4.1, SVG Export Plug-In . SVG Version: 6.00 Build 0)  -->
<svg version="1.1" id="Capa_1" xmlns="http://www.w3.org/2000/svg" xmlns:xlink="http://www.w3.org/1999/xlink" x="0px" y="0px"
	 viewBox="0 0 837.77 768" style="enable-background:new 0 0 837.77 768;" xml:space="preserve">
<style type="text/css">
	.st0{opacity:0.17;}
	.st1{fill:#7B2CBF;}
	.st2{fill:#FEA837;stroke:#FEA837;stroke-miterlimit:10;}
	.st3{fill:#FEA837;}
</style>
<g>
	<g class="st0">
		<g>
			<path class="st1" d="M417.98,737.22c-192.34,0-348.83-156.48-348.83-348.83c0-192.34,156.48-348.83,348.83-348.83
				S766.81,196.05,766.81,388.4C766.81,580.74,610.32,737.22,417.98,737.22z M417.98,70.69c-175.19,0-317.71,142.53-317.71,317.71
				c0,175.19,142.53,317.71,317.71,317.71S735.69,563.58,735.69,388.4C735.69,213.21,593.17,70.69,417.98,70.69z"/>
		</g>
	</g>
	<path class="st2" d="M100.23,388.42c0,88.48,36.39,168.61,94.9,226.28c-7.35,7.26-14.69,14.61-21.95,21.95
		c-64.19-63.27-104-151.16-104-248.23C69.18,196.03,225.6,39.61,418,39.61v31.05C242.8,70.66,100.23,213.22,100.23,388.42z"/>
	<path class="st2" d="M766.81,388.42c0,97.07-39.81,184.97-104.08,248.15l-21.95-21.95c58.59-57.59,94.9-137.72,94.9-226.2
		c0-175.2-142.48-317.76-317.68-317.76V39.61C610.31,39.61,766.81,196.03,766.81,388.42z"/>
	<path class="st2" d="M662.73,636.57C599.79,698.84,513.23,737.23,418,737.23c-95.32,0-181.79-38.4-244.81-100.58
		c7.26-7.35,14.61-14.69,21.95-21.95c57.43,56.51,136.22,91.4,222.86,91.4s165.43-34.89,222.78-91.48L662.73,636.57z"/>
	<circle class="st3" cx="423.98" cy="52.55" r="44.11"/>
</g>
</svg>
