<?xml version="1.0" encoding="utf-8"?>
<!-- Generator: Adobe Illustrator 25.4.1, SVG Export Plug-In . SVG Version: 6.00 Build 0)  -->
<svg version="1.1" id="Capa_1" xmlns="http://www.w3.org/2000/svg" xmlns:xlink="http://www.w3.org/1999/xlink" x="0px" y="0px"
	 viewBox="0 0 837.77 768" style="enable-background:new 0 0 837.77 768;" xml:space="preserve">
<style type="text/css">
	.st0{opacity:0.17;}
	.st1{fill:#7B2CBF;}
	.st2{clip-path:url(#SVGID_00000049903315785771133060000013470276342461601978_);fill:#460E8E;}
	.st3{fill:#460E8E;}
	.st4{clip-path:url(#SVGID_00000129169331163857643630000008892868398358975140_);fill:#460E8E;}
</style>
<g>
	<g class="st0">
		<g>
			<path class="st1" d="M418.71,749.1c-192.84,0-349.73-156.89-349.73-349.73c0-192.84,156.89-349.73,349.73-349.73
				s349.73,156.89,349.73,349.73C768.44,592.22,611.55,749.1,418.71,749.1z M418.71,80.84c-175.64,0-318.54,142.89-318.54,318.53
				c0,175.64,142.89,318.54,318.54,318.54s318.53-142.89,318.53-318.54C737.24,223.73,594.35,80.84,418.71,80.84z"/>
		</g>
	</g>
	<g>
		<g>
			<g>
				<defs>
					<path id="SVGID_1_" d="M723.98,228.91l-27.23,15.19C642.18,146.74,538.02,80.82,418.7,80.82V49.63
						C549.69,49.63,664.08,122.03,723.98,228.91z"/>
				</defs>
				<clipPath id="SVGID_00000079488383132470685720000009450508482375628711_">
					<use xlink:href="#SVGID_1_"  style="overflow:visible;"/>
				</clipPath>
			</g>
		</g>
		<g>
			<g>
				<defs>
					<path id="SVGID_00000060745707184047812660000005092890608567289254_" d="M723.98,228.91l-27.23,15.19
						C642.18,146.74,538.02,80.82,418.7,80.82V49.63C549.69,49.63,664.08,122.03,723.98,228.91z"/>
				</defs>
				<use xlink:href="#SVGID_00000060745707184047812660000005092890608567289254_"  style="overflow:visible;fill:#460E8E;"/>
				<clipPath id="SVGID_00000075844530291063257730000004042147933629352596_">
					<use xlink:href="#SVGID_00000060745707184047812660000005092890608567289254_"  style="overflow:visible;"/>
				</clipPath>
				<path style="clip-path:url(#SVGID_00000075844530291063257730000004042147933629352596_);fill:#460E8E;" d="M723.98,244.1V49.63
					V244.1z"/>
				
					<rect x="720.47" y="49.63" style="clip-path:url(#SVGID_00000075844530291063257730000004042147933629352596_);fill:#460E8E;" width="3.51" height="194.47"/>
				
					<rect x="716.96" y="49.63" style="clip-path:url(#SVGID_00000075844530291063257730000004042147933629352596_);fill:#460E8E;" width="3.51" height="194.47"/>
				
					<rect x="713.45" y="49.63" style="clip-path:url(#SVGID_00000075844530291063257730000004042147933629352596_);fill:#460E8E;" width="3.51" height="194.47"/>
				
					<rect x="709.94" y="49.63" style="clip-path:url(#SVGID_00000075844530291063257730000004042147933629352596_);fill:#460E8E;" width="3.51" height="194.47"/>
				
					<rect x="706.43" y="49.63" style="clip-path:url(#SVGID_00000075844530291063257730000004042147933629352596_);fill:#460E8E;" width="3.51" height="194.47"/>
				
					<rect x="702.92" y="49.63" style="clip-path:url(#SVGID_00000075844530291063257730000004042147933629352596_);fill:#460E8E;" width="3.51" height="194.47"/>
				
					<rect x="699.41" y="49.63" style="clip-path:url(#SVGID_00000075844530291063257730000004042147933629352596_);fill:#460E8E;" width="3.51" height="194.47"/>
				
					<rect x="695.9" y="49.63" style="clip-path:url(#SVGID_00000075844530291063257730000004042147933629352596_);fill:#460E8E;" width="3.51" height="194.47"/>
				
					<rect x="692.4" y="49.63" style="clip-path:url(#SVGID_00000075844530291063257730000004042147933629352596_);fill:#460E8E;" width="3.51" height="194.47"/>
				
					<rect x="688.89" y="49.63" style="clip-path:url(#SVGID_00000075844530291063257730000004042147933629352596_);fill:#460E8E;" width="3.51" height="194.47"/>
				
					<rect x="685.38" y="49.63" style="clip-path:url(#SVGID_00000075844530291063257730000004042147933629352596_);fill:#460E8E;" width="3.51" height="194.47"/>
				
					<rect x="681.87" y="49.63" style="clip-path:url(#SVGID_00000075844530291063257730000004042147933629352596_);fill:#460E8E;" width="3.51" height="194.47"/>
				
					<rect x="678.36" y="49.63" style="clip-path:url(#SVGID_00000075844530291063257730000004042147933629352596_);fill:#460E8E;" width="3.51" height="194.47"/>
				
					<rect x="674.85" y="49.63" style="clip-path:url(#SVGID_00000075844530291063257730000004042147933629352596_);fill:#460E8E;" width="3.51" height="194.47"/>
				
					<rect x="671.34" y="49.63" style="clip-path:url(#SVGID_00000075844530291063257730000004042147933629352596_);fill:#460E8E;" width="3.51" height="194.47"/>
				
					<rect x="667.83" y="49.63" style="clip-path:url(#SVGID_00000075844530291063257730000004042147933629352596_);fill:#460E8E;" width="3.51" height="194.47"/>
				
					<rect x="664.32" y="49.63" style="clip-path:url(#SVGID_00000075844530291063257730000004042147933629352596_);fill:#460E8E;" width="3.51" height="194.47"/>
				
					<rect x="660.82" y="49.63" style="clip-path:url(#SVGID_00000075844530291063257730000004042147933629352596_);fill:#460E8E;" width="3.51" height="194.47"/>
				
					<rect x="657.31" y="49.63" style="clip-path:url(#SVGID_00000075844530291063257730000004042147933629352596_);fill:#460E8E;" width="3.51" height="194.47"/>
				
					<rect x="653.8" y="49.63" style="clip-path:url(#SVGID_00000075844530291063257730000004042147933629352596_);fill:#460E8E;" width="3.51" height="194.47"/>
				
					<rect x="650.29" y="49.63" style="clip-path:url(#SVGID_00000075844530291063257730000004042147933629352596_);fill:#460E8E;" width="3.51" height="194.47"/>
				
					<rect x="646.78" y="49.63" style="clip-path:url(#SVGID_00000075844530291063257730000004042147933629352596_);fill:#460E8E;" width="3.51" height="194.47"/>
				
					<rect x="643.27" y="49.63" style="clip-path:url(#SVGID_00000075844530291063257730000004042147933629352596_);fill:#460E8E;" width="3.51" height="194.47"/>
				
					<rect x="639.76" y="49.63" style="clip-path:url(#SVGID_00000075844530291063257730000004042147933629352596_);fill:#460E8E;" width="3.51" height="194.47"/>
				
					<rect x="636.25" y="49.63" style="clip-path:url(#SVGID_00000075844530291063257730000004042147933629352596_);fill:#460E8E;" width="3.51" height="194.47"/>
				
					<rect x="632.74" y="49.63" style="clip-path:url(#SVGID_00000075844530291063257730000004042147933629352596_);fill:#460E8E;" width="3.51" height="194.47"/>
				
					<rect x="629.24" y="49.63" style="clip-path:url(#SVGID_00000075844530291063257730000004042147933629352596_);fill:#460E8E;" width="3.51" height="194.47"/>
				
					<rect x="625.73" y="49.63" style="clip-path:url(#SVGID_00000075844530291063257730000004042147933629352596_);fill:#460E8E;" width="3.51" height="194.47"/>
				
					<rect x="622.22" y="49.63" style="clip-path:url(#SVGID_00000075844530291063257730000004042147933629352596_);fill:#460E8E;" width="3.51" height="194.47"/>
				
					<rect x="618.71" y="49.63" style="clip-path:url(#SVGID_00000075844530291063257730000004042147933629352596_);fill:#460E8E;" width="3.51" height="194.47"/>
				
					<rect x="615.2" y="49.63" style="clip-path:url(#SVGID_00000075844530291063257730000004042147933629352596_);fill:#460E8E;" width="3.51" height="194.47"/>
				
					<rect x="611.69" y="49.63" style="clip-path:url(#SVGID_00000075844530291063257730000004042147933629352596_);fill:#460E8E;" width="3.51" height="194.47"/>
				
					<rect x="608.18" y="49.63" style="clip-path:url(#SVGID_00000075844530291063257730000004042147933629352596_);fill:#460E8E;" width="3.51" height="194.47"/>
				
					<rect x="604.67" y="49.63" style="clip-path:url(#SVGID_00000075844530291063257730000004042147933629352596_);fill:#460E8E;" width="3.51" height="194.47"/>
				
					<rect x="601.16" y="49.63" style="clip-path:url(#SVGID_00000075844530291063257730000004042147933629352596_);fill:#460E8E;" width="3.51" height="194.47"/>
				
					<rect x="597.66" y="49.63" style="clip-path:url(#SVGID_00000075844530291063257730000004042147933629352596_);fill:#460E8E;" width="3.51" height="194.47"/>
				
					<rect x="594.15" y="49.63" style="clip-path:url(#SVGID_00000075844530291063257730000004042147933629352596_);fill:#460E8E;" width="3.51" height="194.47"/>
				
					<rect x="590.64" y="49.63" style="clip-path:url(#SVGID_00000075844530291063257730000004042147933629352596_);fill:#460E8E;" width="3.51" height="194.47"/>
				
					<rect x="587.13" y="49.63" style="clip-path:url(#SVGID_00000075844530291063257730000004042147933629352596_);fill:#460E8E;" width="3.51" height="194.47"/>
				
					<rect x="583.62" y="49.63" style="clip-path:url(#SVGID_00000075844530291063257730000004042147933629352596_);fill:#460E8E;" width="3.51" height="194.47"/>
				
					<rect x="580.11" y="49.63" style="clip-path:url(#SVGID_00000075844530291063257730000004042147933629352596_);fill:#460E8E;" width="3.51" height="194.47"/>
				
					<rect x="576.6" y="49.63" style="clip-path:url(#SVGID_00000075844530291063257730000004042147933629352596_);fill:#460E8E;" width="3.51" height="194.47"/>
				
					<rect x="573.09" y="49.63" style="clip-path:url(#SVGID_00000075844530291063257730000004042147933629352596_);fill:#460E8E;" width="3.51" height="194.47"/>
				
					<rect x="569.58" y="49.63" style="clip-path:url(#SVGID_00000075844530291063257730000004042147933629352596_);fill:#460E8E;" width="3.51" height="194.47"/>
				
					<rect x="566.08" y="49.63" style="clip-path:url(#SVGID_00000075844530291063257730000004042147933629352596_);fill:#460E8E;" width="3.51" height="194.47"/>
				
					<rect x="562.57" y="49.63" style="clip-path:url(#SVGID_00000075844530291063257730000004042147933629352596_);fill:#460E8E;" width="3.51" height="194.47"/>
				
					<rect x="559.06" y="49.63" style="clip-path:url(#SVGID_00000075844530291063257730000004042147933629352596_);fill:#460E8E;" width="3.51" height="194.47"/>
				
					<rect x="555.55" y="49.63" style="clip-path:url(#SVGID_00000075844530291063257730000004042147933629352596_);fill:#460E8E;" width="3.51" height="194.47"/>
				
					<rect x="552.04" y="49.63" style="clip-path:url(#SVGID_00000075844530291063257730000004042147933629352596_);fill:#460E8E;" width="3.51" height="194.47"/>
				
					<rect x="548.53" y="49.63" style="clip-path:url(#SVGID_00000075844530291063257730000004042147933629352596_);fill:#460E8E;" width="3.51" height="194.47"/>
				
					<rect x="545.02" y="49.63" style="clip-path:url(#SVGID_00000075844530291063257730000004042147933629352596_);fill:#460E8E;" width="3.51" height="194.47"/>
				
					<rect x="541.51" y="49.63" style="clip-path:url(#SVGID_00000075844530291063257730000004042147933629352596_);fill:#460E8E;" width="3.51" height="194.47"/>
				
					<rect x="538" y="49.63" style="clip-path:url(#SVGID_00000075844530291063257730000004042147933629352596_);fill:#460E8E;" width="3.51" height="194.47"/>
				
					<rect x="534.5" y="49.63" style="clip-path:url(#SVGID_00000075844530291063257730000004042147933629352596_);fill:#460E8E;" width="3.51" height="194.47"/>
				
					<rect x="530.99" y="49.63" style="clip-path:url(#SVGID_00000075844530291063257730000004042147933629352596_);fill:#460E8E;" width="3.51" height="194.47"/>
				
					<rect x="527.48" y="49.63" style="clip-path:url(#SVGID_00000075844530291063257730000004042147933629352596_);fill:#460E8E;" width="3.51" height="194.47"/>
				
					<rect x="523.97" y="49.63" style="clip-path:url(#SVGID_00000075844530291063257730000004042147933629352596_);fill:#460E8E;" width="3.51" height="194.47"/>
				
					<rect x="520.46" y="49.63" style="clip-path:url(#SVGID_00000075844530291063257730000004042147933629352596_);fill:#460E8E;" width="3.51" height="194.47"/>
				
					<rect x="516.95" y="49.63" style="clip-path:url(#SVGID_00000075844530291063257730000004042147933629352596_);fill:#460E8E;" width="3.51" height="194.47"/>
				
					<rect x="513.44" y="49.63" style="clip-path:url(#SVGID_00000075844530291063257730000004042147933629352596_);fill:#460E8E;" width="3.51" height="194.47"/>
				
					<rect x="509.93" y="49.63" style="clip-path:url(#SVGID_00000075844530291063257730000004042147933629352596_);fill:#460E8E;" width="3.51" height="194.47"/>
				
					<rect x="506.42" y="49.63" style="clip-path:url(#SVGID_00000075844530291063257730000004042147933629352596_);fill:#460E8E;" width="3.51" height="194.47"/>
				
					<rect x="502.92" y="49.63" style="clip-path:url(#SVGID_00000075844530291063257730000004042147933629352596_);fill:#460E8E;" width="3.51" height="194.47"/>
				
					<rect x="499.41" y="49.63" style="clip-path:url(#SVGID_00000075844530291063257730000004042147933629352596_);fill:#460E8E;" width="3.51" height="194.47"/>
				
					<rect x="495.9" y="49.63" style="clip-path:url(#SVGID_00000075844530291063257730000004042147933629352596_);fill:#460E8E;" width="3.51" height="194.47"/>
				
					<rect x="492.39" y="49.63" style="clip-path:url(#SVGID_00000075844530291063257730000004042147933629352596_);fill:#460E8E;" width="3.51" height="194.47"/>
				
					<rect x="488.88" y="49.63" style="clip-path:url(#SVGID_00000075844530291063257730000004042147933629352596_);fill:#460E8E;" width="3.51" height="194.47"/>
				
					<rect x="485.37" y="49.63" style="clip-path:url(#SVGID_00000075844530291063257730000004042147933629352596_);fill:#460E8E;" width="3.51" height="194.47"/>
				
					<rect x="481.86" y="49.63" style="clip-path:url(#SVGID_00000075844530291063257730000004042147933629352596_);fill:#460E8E;" width="3.51" height="194.47"/>
				
					<rect x="478.35" y="49.63" style="clip-path:url(#SVGID_00000075844530291063257730000004042147933629352596_);fill:#460E8E;" width="3.51" height="194.47"/>
				
					<rect x="474.84" y="49.63" style="clip-path:url(#SVGID_00000075844530291063257730000004042147933629352596_);fill:#460E8E;" width="3.51" height="194.47"/>
				
					<rect x="471.34" y="49.63" style="clip-path:url(#SVGID_00000075844530291063257730000004042147933629352596_);fill:#460E8E;" width="3.51" height="194.47"/>
				
					<rect x="467.83" y="49.63" style="clip-path:url(#SVGID_00000075844530291063257730000004042147933629352596_);fill:#460E8E;" width="3.51" height="194.47"/>
				
					<rect x="464.32" y="49.63" style="clip-path:url(#SVGID_00000075844530291063257730000004042147933629352596_);fill:#460E8E;" width="3.51" height="194.47"/>
				
					<rect x="460.81" y="49.63" style="clip-path:url(#SVGID_00000075844530291063257730000004042147933629352596_);fill:#460E8E;" width="3.51" height="194.47"/>
				
					<rect x="457.3" y="49.63" style="clip-path:url(#SVGID_00000075844530291063257730000004042147933629352596_);fill:#460E8E;" width="3.51" height="194.47"/>
				
					<rect x="453.79" y="49.63" style="clip-path:url(#SVGID_00000075844530291063257730000004042147933629352596_);fill:#460E8E;" width="3.51" height="194.47"/>
				
					<rect x="450.28" y="49.63" style="clip-path:url(#SVGID_00000075844530291063257730000004042147933629352596_);fill:#460E8E;" width="3.51" height="194.47"/>
				
					<rect x="446.77" y="49.63" style="clip-path:url(#SVGID_00000075844530291063257730000004042147933629352596_);fill:#460E8E;" width="3.51" height="194.47"/>
				
					<rect x="443.27" y="49.63" style="clip-path:url(#SVGID_00000075844530291063257730000004042147933629352596_);fill:#460E8E;" width="3.51" height="194.47"/>
				
					<rect x="439.76" y="49.63" style="clip-path:url(#SVGID_00000075844530291063257730000004042147933629352596_);fill:#460E8E;" width="3.51" height="194.47"/>
				
					<rect x="436.25" y="49.63" style="clip-path:url(#SVGID_00000075844530291063257730000004042147933629352596_);fill:#460E8E;" width="3.51" height="194.47"/>
				
					<rect x="432.74" y="49.63" style="clip-path:url(#SVGID_00000075844530291063257730000004042147933629352596_);fill:#460E8E;" width="3.51" height="194.47"/>
				
					<rect x="429.23" y="49.63" style="clip-path:url(#SVGID_00000075844530291063257730000004042147933629352596_);fill:#460E8E;" width="3.51" height="194.47"/>
				
					<rect x="425.72" y="49.63" style="clip-path:url(#SVGID_00000075844530291063257730000004042147933629352596_);fill:#460E8E;" width="3.51" height="194.47"/>
				
					<rect x="422.21" y="49.63" style="clip-path:url(#SVGID_00000075844530291063257730000004042147933629352596_);fill:#460E8E;" width="3.51" height="194.47"/>
				
					<rect x="418.7" y="49.63" style="clip-path:url(#SVGID_00000075844530291063257730000004042147933629352596_);fill:#460E8E;" width="3.51" height="194.47"/>
				<path style="clip-path:url(#SVGID_00000075844530291063257730000004042147933629352596_);fill:#460E8E;" d="M418.7,49.63V244.1
					V49.63z"/>
			</g>
			<path class="st3" d="M696.14,246.22l-0.76-1.36C639.22,144.64,533.2,82.38,418.7,82.38h-1.56V48.07h1.56
				c126.89,0,244.38,69,306.63,180.07l0.76,1.36L696.14,246.22z M420.26,79.27c114.51,0.56,220.43,62.75,277.08,162.71l24.51-13.67
				C660.21,119.47,544.9,51.76,420.26,51.19V79.27z"/>
		</g>
		<g>
			<g>
				<defs>
					<path id="SVGID_00000072237922946097543040000003263149238437508754_" d="M723.98,228.91l-27.23,15.19
						C642.18,146.74,538.02,80.82,418.7,80.82V49.63C549.69,49.63,664.08,122.03,723.98,228.91z"/>
				</defs>
				<clipPath id="SVGID_00000048470686797289586470000009969720557213232282_">
					<use xlink:href="#SVGID_00000072237922946097543040000003263149238437508754_"  style="overflow:visible;"/>
				</clipPath>
			</g>
		</g>
	</g>
	<g>
		<g>
			<g>
				<defs>
					<path id="SVGID_00000139985270909133606030000000164359605728031890_" d="M768.43,399.39c0,64.67-17.63,125.28-48.38,177.31
						l-26.89-15.82c28.01-47.38,44.08-102.6,44.08-161.5c0-56.37-14.69-109.34-40.49-155.29l27.23-15.19
						C752.3,279.35,768.43,337.53,768.43,399.39z"/>
				</defs>
				<clipPath id="SVGID_00000056394084019080124210000010204317113980626841_">
					<use xlink:href="#SVGID_00000139985270909133606030000000164359605728031890_"  style="overflow:visible;"/>
				</clipPath>
			</g>
		</g>
		<g>
			<g>
				<defs>
					<path id="SVGID_00000085956731454266357420000003662225278667791259_" d="M768.43,399.39c0,64.67-17.63,125.28-48.38,177.31
						l-26.89-15.82c28.01-47.38,44.08-102.6,44.08-161.5c0-56.37-14.69-109.34-40.49-155.29l27.23-15.19
						C752.3,279.35,768.43,337.53,768.43,399.39z"/>
				</defs>
				<use xlink:href="#SVGID_00000085956731454266357420000003662225278667791259_"  style="overflow:visible;fill:#460E8E;"/>
				<clipPath id="SVGID_00000004522746461356431170000007721009423722860988_">
					<use xlink:href="#SVGID_00000085956731454266357420000003662225278667791259_"  style="overflow:visible;"/>
				</clipPath>
				<path style="clip-path:url(#SVGID_00000004522746461356431170000007721009423722860988_);fill:#460E8E;" d="M768.43,576.7
					V228.91V576.7z"/>
				
					<rect x="767.56" y="228.91" style="clip-path:url(#SVGID_00000004522746461356431170000007721009423722860988_);fill:#460E8E;" width="0.87" height="347.79"/>
				
					<rect x="766.7" y="228.91" style="clip-path:url(#SVGID_00000004522746461356431170000007721009423722860988_);fill:#460E8E;" width="0.87" height="347.79"/>
				
					<rect x="765.83" y="228.91" style="clip-path:url(#SVGID_00000004522746461356431170000007721009423722860988_);fill:#460E8E;" width="0.87" height="347.79"/>
				
					<rect x="764.97" y="228.91" style="clip-path:url(#SVGID_00000004522746461356431170000007721009423722860988_);fill:#460E8E;" width="0.87" height="347.79"/>
				
					<rect x="764.1" y="228.91" style="clip-path:url(#SVGID_00000004522746461356431170000007721009423722860988_);fill:#460E8E;" width="0.87" height="347.79"/>
				
					<rect x="763.24" y="228.91" style="clip-path:url(#SVGID_00000004522746461356431170000007721009423722860988_);fill:#460E8E;" width="0.87" height="347.79"/>
				
					<rect x="762.37" y="228.91" style="clip-path:url(#SVGID_00000004522746461356431170000007721009423722860988_);fill:#460E8E;" width="0.87" height="347.79"/>
				
					<rect x="761.51" y="228.91" style="clip-path:url(#SVGID_00000004522746461356431170000007721009423722860988_);fill:#460E8E;" width="0.87" height="347.79"/>
				
					<rect x="760.64" y="228.91" style="clip-path:url(#SVGID_00000004522746461356431170000007721009423722860988_);fill:#460E8E;" width="0.87" height="347.79"/>
				
					<rect x="759.78" y="228.91" style="clip-path:url(#SVGID_00000004522746461356431170000007721009423722860988_);fill:#460E8E;" width="0.87" height="347.79"/>
				
					<rect x="758.91" y="228.91" style="clip-path:url(#SVGID_00000004522746461356431170000007721009423722860988_);fill:#460E8E;" width="0.87" height="347.79"/>
				
					<rect x="758.05" y="228.91" style="clip-path:url(#SVGID_00000004522746461356431170000007721009423722860988_);fill:#460E8E;" width="0.87" height="347.79"/>
				
					<rect x="757.18" y="228.91" style="clip-path:url(#SVGID_00000004522746461356431170000007721009423722860988_);fill:#460E8E;" width="0.87" height="347.79"/>
				
					<rect x="756.32" y="228.91" style="clip-path:url(#SVGID_00000004522746461356431170000007721009423722860988_);fill:#460E8E;" width="0.87" height="347.79"/>
				
					<rect x="755.45" y="228.91" style="clip-path:url(#SVGID_00000004522746461356431170000007721009423722860988_);fill:#460E8E;" width="0.87" height="347.79"/>
				
					<rect x="754.58" y="228.91" style="clip-path:url(#SVGID_00000004522746461356431170000007721009423722860988_);fill:#460E8E;" width="0.87" height="347.79"/>
				
					<rect x="753.72" y="228.91" style="clip-path:url(#SVGID_00000004522746461356431170000007721009423722860988_);fill:#460E8E;" width="0.87" height="347.79"/>
				
					<rect x="752.85" y="228.91" style="clip-path:url(#SVGID_00000004522746461356431170000007721009423722860988_);fill:#460E8E;" width="0.87" height="347.79"/>
				
					<rect x="751.99" y="228.91" style="clip-path:url(#SVGID_00000004522746461356431170000007721009423722860988_);fill:#460E8E;" width="0.87" height="347.79"/>
				
					<rect x="751.12" y="228.91" style="clip-path:url(#SVGID_00000004522746461356431170000007721009423722860988_);fill:#460E8E;" width="0.87" height="347.79"/>
				
					<rect x="750.26" y="228.91" style="clip-path:url(#SVGID_00000004522746461356431170000007721009423722860988_);fill:#460E8E;" width="0.87" height="347.79"/>
				
					<rect x="749.39" y="228.91" style="clip-path:url(#SVGID_00000004522746461356431170000007721009423722860988_);fill:#460E8E;" width="0.87" height="347.79"/>
				
					<rect x="748.53" y="228.91" style="clip-path:url(#SVGID_00000004522746461356431170000007721009423722860988_);fill:#460E8E;" width="0.87" height="347.79"/>
				
					<rect x="747.66" y="228.91" style="clip-path:url(#SVGID_00000004522746461356431170000007721009423722860988_);fill:#460E8E;" width="0.87" height="347.79"/>
				
					<rect x="746.8" y="228.91" style="clip-path:url(#SVGID_00000004522746461356431170000007721009423722860988_);fill:#460E8E;" width="0.87" height="347.79"/>
				
					<rect x="745.93" y="228.91" style="clip-path:url(#SVGID_00000004522746461356431170000007721009423722860988_);fill:#460E8E;" width="0.87" height="347.79"/>
				
					<rect x="745.07" y="228.91" style="clip-path:url(#SVGID_00000004522746461356431170000007721009423722860988_);fill:#460E8E;" width="0.87" height="347.79"/>
				
					<rect x="744.2" y="228.91" style="clip-path:url(#SVGID_00000004522746461356431170000007721009423722860988_);fill:#460E8E;" width="0.87" height="347.79"/>
				
					<rect x="743.34" y="228.91" style="clip-path:url(#SVGID_00000004522746461356431170000007721009423722860988_);fill:#460E8E;" width="0.87" height="347.79"/>
				
					<rect x="742.47" y="228.91" style="clip-path:url(#SVGID_00000004522746461356431170000007721009423722860988_);fill:#460E8E;" width="0.87" height="347.79"/>
				
					<rect x="741.61" y="228.91" style="clip-path:url(#SVGID_00000004522746461356431170000007721009423722860988_);fill:#460E8E;" width="0.87" height="347.79"/>
				
					<rect x="740.74" y="228.91" style="clip-path:url(#SVGID_00000004522746461356431170000007721009423722860988_);fill:#460E8E;" width="0.87" height="347.79"/>
				
					<rect x="739.88" y="228.91" style="clip-path:url(#SVGID_00000004522746461356431170000007721009423722860988_);fill:#460E8E;" width="0.87" height="347.79"/>
				
					<rect x="739.01" y="228.91" style="clip-path:url(#SVGID_00000004522746461356431170000007721009423722860988_);fill:#460E8E;" width="0.87" height="347.79"/>
				
					<rect x="738.15" y="228.91" style="clip-path:url(#SVGID_00000004522746461356431170000007721009423722860988_);fill:#460E8E;" width="0.87" height="347.79"/>
				
					<rect x="737.28" y="228.91" style="clip-path:url(#SVGID_00000004522746461356431170000007721009423722860988_);fill:#460E8E;" width="0.87" height="347.79"/>
				
					<rect x="736.42" y="228.91" style="clip-path:url(#SVGID_00000004522746461356431170000007721009423722860988_);fill:#460E8E;" width="0.87" height="347.79"/>
				
					<rect x="735.55" y="228.91" style="clip-path:url(#SVGID_00000004522746461356431170000007721009423722860988_);fill:#460E8E;" width="0.87" height="347.79"/>
				
					<rect x="734.68" y="228.91" style="clip-path:url(#SVGID_00000004522746461356431170000007721009423722860988_);fill:#460E8E;" width="0.87" height="347.79"/>
				
					<rect x="733.82" y="228.91" style="clip-path:url(#SVGID_00000004522746461356431170000007721009423722860988_);fill:#460E8E;" width="0.87" height="347.79"/>
				
					<rect x="732.95" y="228.91" style="clip-path:url(#SVGID_00000004522746461356431170000007721009423722860988_);fill:#460E8E;" width="0.87" height="347.79"/>
				
					<rect x="732.09" y="228.91" style="clip-path:url(#SVGID_00000004522746461356431170000007721009423722860988_);fill:#460E8E;" width="0.87" height="347.79"/>
				
					<rect x="731.22" y="228.91" style="clip-path:url(#SVGID_00000004522746461356431170000007721009423722860988_);fill:#460E8E;" width="0.87" height="347.79"/>
				
					<rect x="730.36" y="228.91" style="clip-path:url(#SVGID_00000004522746461356431170000007721009423722860988_);fill:#460E8E;" width="0.87" height="347.79"/>
				
					<rect x="729.49" y="228.91" style="clip-path:url(#SVGID_00000004522746461356431170000007721009423722860988_);fill:#460E8E;" width="0.87" height="347.79"/>
				
					<rect x="728.63" y="228.91" style="clip-path:url(#SVGID_00000004522746461356431170000007721009423722860988_);fill:#460E8E;" width="0.87" height="347.79"/>
				
					<rect x="727.76" y="228.91" style="clip-path:url(#SVGID_00000004522746461356431170000007721009423722860988_);fill:#460E8E;" width="0.87" height="347.79"/>
				
					<rect x="726.9" y="228.91" style="clip-path:url(#SVGID_00000004522746461356431170000007721009423722860988_);fill:#460E8E;" width="0.87" height="347.79"/>
				
					<rect x="726.03" y="228.91" style="clip-path:url(#SVGID_00000004522746461356431170000007721009423722860988_);fill:#460E8E;" width="0.87" height="347.79"/>
				
					<rect x="725.17" y="228.91" style="clip-path:url(#SVGID_00000004522746461356431170000007721009423722860988_);fill:#460E8E;" width="0.87" height="347.79"/>
				
					<rect x="724.3" y="228.91" style="clip-path:url(#SVGID_00000004522746461356431170000007721009423722860988_);fill:#460E8E;" width="0.87" height="347.79"/>
				
					<rect x="723.44" y="228.91" style="clip-path:url(#SVGID_00000004522746461356431170000007721009423722860988_);fill:#460E8E;" width="0.87" height="347.79"/>
				
					<rect x="722.57" y="228.91" style="clip-path:url(#SVGID_00000004522746461356431170000007721009423722860988_);fill:#460E8E;" width="0.87" height="347.79"/>
				
					<rect x="721.71" y="228.91" style="clip-path:url(#SVGID_00000004522746461356431170000007721009423722860988_);fill:#460E8E;" width="0.87" height="347.79"/>
				
					<rect x="720.84" y="228.91" style="clip-path:url(#SVGID_00000004522746461356431170000007721009423722860988_);fill:#460E8E;" width="0.87" height="347.79"/>
				
					<rect x="719.98" y="228.91" style="clip-path:url(#SVGID_00000004522746461356431170000007721009423722860988_);fill:#460E8E;" width="0.87" height="347.79"/>
				
					<rect x="719.11" y="228.91" style="clip-path:url(#SVGID_00000004522746461356431170000007721009423722860988_);fill:#460E8E;" width="0.87" height="347.79"/>
				
					<rect x="718.25" y="228.91" style="clip-path:url(#SVGID_00000004522746461356431170000007721009423722860988_);fill:#460E8E;" width="0.87" height="347.79"/>
				
					<rect x="717.38" y="228.91" style="clip-path:url(#SVGID_00000004522746461356431170000007721009423722860988_);fill:#460E8E;" width="0.87" height="347.79"/>
				
					<rect x="716.52" y="228.91" style="clip-path:url(#SVGID_00000004522746461356431170000007721009423722860988_);fill:#460E8E;" width="0.87" height="347.79"/>
				
					<rect x="715.65" y="228.91" style="clip-path:url(#SVGID_00000004522746461356431170000007721009423722860988_);fill:#460E8E;" width="0.87" height="347.79"/>
				
					<rect x="714.79" y="228.91" style="clip-path:url(#SVGID_00000004522746461356431170000007721009423722860988_);fill:#460E8E;" width="0.87" height="347.79"/>
				
					<rect x="713.92" y="228.91" style="clip-path:url(#SVGID_00000004522746461356431170000007721009423722860988_);fill:#460E8E;" width="0.87" height="347.79"/>
				
					<rect x="713.05" y="228.91" style="clip-path:url(#SVGID_00000004522746461356431170000007721009423722860988_);fill:#460E8E;" width="0.87" height="347.79"/>
				
					<rect x="712.19" y="228.91" style="clip-path:url(#SVGID_00000004522746461356431170000007721009423722860988_);fill:#460E8E;" width="0.87" height="347.79"/>
				
					<rect x="711.32" y="228.91" style="clip-path:url(#SVGID_00000004522746461356431170000007721009423722860988_);fill:#460E8E;" width="0.87" height="347.79"/>
				
					<rect x="710.46" y="228.91" style="clip-path:url(#SVGID_00000004522746461356431170000007721009423722860988_);fill:#460E8E;" width="0.87" height="347.79"/>
				
					<rect x="709.59" y="228.91" style="clip-path:url(#SVGID_00000004522746461356431170000007721009423722860988_);fill:#460E8E;" width="0.87" height="347.79"/>
				
					<rect x="708.73" y="228.91" style="clip-path:url(#SVGID_00000004522746461356431170000007721009423722860988_);fill:#460E8E;" width="0.87" height="347.79"/>
				
					<rect x="707.86" y="228.91" style="clip-path:url(#SVGID_00000004522746461356431170000007721009423722860988_);fill:#460E8E;" width="0.87" height="347.79"/>
				
					<rect x="707" y="228.91" style="clip-path:url(#SVGID_00000004522746461356431170000007721009423722860988_);fill:#460E8E;" width="0.87" height="347.79"/>
				
					<rect x="706.13" y="228.91" style="clip-path:url(#SVGID_00000004522746461356431170000007721009423722860988_);fill:#460E8E;" width="0.87" height="347.79"/>
				
					<rect x="705.27" y="228.91" style="clip-path:url(#SVGID_00000004522746461356431170000007721009423722860988_);fill:#460E8E;" width="0.87" height="347.79"/>
				
					<rect x="704.4" y="228.91" style="clip-path:url(#SVGID_00000004522746461356431170000007721009423722860988_);fill:#460E8E;" width="0.87" height="347.79"/>
				
					<rect x="703.54" y="228.91" style="clip-path:url(#SVGID_00000004522746461356431170000007721009423722860988_);fill:#460E8E;" width="0.87" height="347.79"/>
				
					<rect x="702.67" y="228.91" style="clip-path:url(#SVGID_00000004522746461356431170000007721009423722860988_);fill:#460E8E;" width="0.87" height="347.79"/>
				
					<rect x="701.81" y="228.91" style="clip-path:url(#SVGID_00000004522746461356431170000007721009423722860988_);fill:#460E8E;" width="0.87" height="347.79"/>
				
					<rect x="700.94" y="228.91" style="clip-path:url(#SVGID_00000004522746461356431170000007721009423722860988_);fill:#460E8E;" width="0.87" height="347.79"/>
				
					<rect x="700.08" y="228.91" style="clip-path:url(#SVGID_00000004522746461356431170000007721009423722860988_);fill:#460E8E;" width="0.87" height="347.79"/>
				
					<rect x="699.21" y="228.91" style="clip-path:url(#SVGID_00000004522746461356431170000007721009423722860988_);fill:#460E8E;" width="0.87" height="347.79"/>
				
					<rect x="698.35" y="228.91" style="clip-path:url(#SVGID_00000004522746461356431170000007721009423722860988_);fill:#460E8E;" width="0.87" height="347.79"/>
				
					<rect x="697.48" y="228.91" style="clip-path:url(#SVGID_00000004522746461356431170000007721009423722860988_);fill:#460E8E;" width="0.87" height="347.79"/>
				
					<rect x="696.62" y="228.91" style="clip-path:url(#SVGID_00000004522746461356431170000007721009423722860988_);fill:#460E8E;" width="0.87" height="347.79"/>
				
					<rect x="695.75" y="228.91" style="clip-path:url(#SVGID_00000004522746461356431170000007721009423722860988_);fill:#460E8E;" width="0.87" height="347.79"/>
				
					<rect x="694.89" y="228.91" style="clip-path:url(#SVGID_00000004522746461356431170000007721009423722860988_);fill:#460E8E;" width="0.87" height="347.79"/>
				
					<rect x="694.02" y="228.91" style="clip-path:url(#SVGID_00000004522746461356431170000007721009423722860988_);fill:#460E8E;" width="0.87" height="347.79"/>
				
					<rect x="693.15" y="228.91" style="clip-path:url(#SVGID_00000004522746461356431170000007721009423722860988_);fill:#460E8E;" width="0.87" height="347.79"/>
				<path style="clip-path:url(#SVGID_00000004522746461356431170000007721009423722860988_);fill:#460E8E;" d="M693.15,228.91
					V576.7V228.91z"/>
			</g>
			<path class="st3" d="M720.6,578.83l-29.58-17.4l0.8-1.34c28.69-48.53,43.86-104.1,43.86-160.7c0-54.14-13.93-107.57-40.29-154.52
				l-0.77-1.36l29.95-16.71l0.76,1.36c29.21,52.02,44.65,111.24,44.65,171.24c0,62.73-16.81,124.32-48.6,178.11L720.6,578.83z
				 M695.29,560.33l24.2,14.24c31-52.99,47.38-113.52,47.38-175.18c0-58.95-15.04-117.13-43.49-168.36l-24.51,13.67
				c26.13,47.08,39.93,100.53,39.93,154.69C738.79,456.02,723.76,511.63,695.29,560.33z"/>
		</g>
		<g>
			<g>
				<defs>
					<path id="SVGID_00000111158665298713739330000004314622007179805840_" d="M768.43,399.39c0,64.67-17.63,125.28-48.38,177.31
						l-26.89-15.82c28.01-47.38,44.08-102.6,44.08-161.5c0-56.37-14.69-109.34-40.49-155.29l27.23-15.19
						C752.3,279.35,768.43,337.53,768.43,399.39z"/>
				</defs>
				<clipPath id="SVGID_00000139284043796682513020000002056541029050430359_">
					<use xlink:href="#SVGID_00000111158665298713739330000004314622007179805840_"  style="overflow:visible;"/>
				</clipPath>
			</g>
		</g>
	</g>
	<circle class="st3" cx="695.29" cy="582.99" r="44.23"/>
</g>
</svg>
